<svg width="342" height="355" viewBox="0 0 342 355" fill="none" xmlns="http://www.w3.org/2000/svg">
<g filter="url(#filter0_d_1117_514)">
<path d="M253.462 42.3728L249.949 43.6792L248.441 38.9009C245.671 30.0898 236.844 25.4109 228.733 28.3858C220.621 31.3607 216.303 41.0238 219.073 49.8349L220.58 54.6132L217.053 55.9267C215.709 56.4696 214.616 57.531 214.004 58.8903C213.392 60.2497 213.306 61.8023 213.765 63.2255L223.541 94.3164C223.744 95.021 224.081 95.6759 224.532 96.2422C224.983 96.8086 225.538 97.2748 226.166 97.6133C226.793 97.9517 227.48 98.1554 228.184 98.2123C228.889 98.2692 229.597 98.1782 230.268 97.9445L266.676 84.3906C268.039 83.8487 269.146 82.7778 269.766 81.4034C270.386 80.0289 270.469 78.4579 269.998 77.0208L260.216 45.9299C260.008 45.2273 259.666 44.5756 259.21 44.0136C258.755 43.4516 258.195 42.9909 257.565 42.6589C256.934 42.3269 256.246 42.1305 255.541 42.0814C254.836 42.0322 254.129 42.1313 253.462 42.3728ZM225.71 47.3428C224.964 45.0518 225.098 42.5489 226.085 40.3584C227.071 38.168 228.834 36.46 231.004 35.5923C232.076 35.2108 233.21 35.0578 234.34 35.1425C235.469 35.2271 236.571 35.5477 237.578 36.0851C238.586 36.6225 239.48 37.3657 240.206 38.2703C240.932 39.1749 241.475 40.2225 241.803 41.3504L243.304 46.1287L227.211 52.1211L225.71 47.3428ZM246.176 74.9334L248.673 82.8712C248.719 83.0304 248.704 83.2018 248.632 83.3499C248.559 83.498 248.435 83.6113 248.284 83.6664L244.785 84.9657C244.645 85.0059 244.496 84.9884 244.369 84.917C244.242 84.8455 244.146 84.7256 244.102 84.5823L241.585 76.68C240.197 76.6013 238.865 76.0832 237.768 75.1949C236.671 74.3067 235.86 73.0908 235.445 71.71C234.852 69.8846 234.96 67.891 235.747 66.1467C236.534 64.4024 237.939 63.0427 239.668 62.3522C240.522 62.0487 241.425 61.9272 242.325 61.9948C243.224 62.0624 244.102 62.3178 244.904 62.7458C245.707 63.1738 246.419 63.7657 246.997 64.486C247.576 65.2064 248.009 66.0406 248.271 66.9388C248.71 68.3415 248.746 69.8469 248.375 71.2707C248.004 72.6944 247.242 73.9747 246.183 74.9547L246.176 74.9334Z" fill="#FFC453"/>
<path d="M249.792 43.5941C249.792 43.6935 243.277 46.2424 235.173 49.2741C227.068 52.3058 220.458 54.7411 220.423 54.6701C220.389 54.5991 226.938 52.0289 235.05 48.9901C243.161 45.9513 249.758 43.5018 249.792 43.5941Z" fill="#263238"/>
<path d="M257.528 44.9004C257.558 44.962 257.583 45.0261 257.603 45.0921C257.658 45.2341 257.719 45.4187 257.801 45.6459C257.978 46.1642 258.224 46.8813 258.531 47.7759L261.15 55.7137C262.242 59.0791 263.545 63.0693 264.991 67.4997C265.673 69.722 266.478 72.0366 267.229 74.4719C267.63 75.7268 267.804 77.0487 267.74 78.3698C267.682 79.0568 267.495 79.7252 267.188 80.3365C266.86 80.9457 266.422 81.4833 265.898 81.9198C264.844 82.7205 263.675 83.3413 262.433 83.7587L258.92 85.0722L252.268 87.5501L241.005 91.7249L233.399 94.5081L231.352 95.2181L230.806 95.4027C230.748 95.4297 230.686 95.4465 230.622 95.4524C230.622 95.4524 230.677 95.4524 230.793 95.3672L231.325 95.1471L233.371 94.3448L240.937 91.448L252.18 87.188L258.817 84.6888L262.331 83.3682C263.537 82.9677 264.673 82.3658 265.694 81.5861C266.181 81.1811 266.589 80.6821 266.894 80.1164C267.183 79.5511 267.357 78.93 267.406 78.2917C267.469 77.0188 267.302 75.7449 266.915 74.5358C266.178 72.1218 265.4 69.7859 264.698 67.5636C263.279 63.1261 261.969 59.1217 260.932 55.7563C259.895 52.3909 259.022 49.6858 258.422 47.783C258.135 46.8529 257.917 46.1287 257.739 45.6033L257.576 45.0353C257.555 44.9923 257.539 44.947 257.528 44.9004Z" fill="#263238"/>
<path d="M238.317 35.1095C238.317 35.1095 237.956 34.9249 237.287 34.6409C236.334 34.2598 235.326 34.0486 234.306 34.0161C232.794 33.9621 231.288 34.258 229.899 34.8823C228.21 35.6598 226.765 36.9172 225.731 38.5104C224.69 40.0991 224.131 41.9765 224.128 43.8993C224.142 45.4753 224.372 47.0412 224.81 48.5498C225.165 49.842 225.533 50.8715 225.779 51.5886C225.924 51.9529 226.042 52.3278 226.133 52.7104C225.94 52.3699 225.777 52.0109 225.649 51.6383C225.369 50.9283 224.967 49.9201 224.571 48.6208C224.086 47.0964 223.821 45.505 223.787 43.8993C223.768 41.9038 224.34 39.9507 225.424 38.3045C226.494 36.6531 227.998 35.3568 229.756 34.5699C231.189 33.9422 232.741 33.6652 234.292 33.7605C235.335 33.8158 236.359 34.0684 237.315 34.506C237.57 34.6287 237.816 34.7711 238.051 34.932C238.148 34.9764 238.238 35.0363 238.317 35.1095Z" fill="#263238"/>
<path d="M238.631 62.8918C238.74 62.8232 238.854 62.7638 238.972 62.7143C239.314 62.554 239.667 62.4233 240.03 62.3238C240.605 62.1472 241.198 62.0423 241.797 62.0114C242.611 61.9659 243.426 62.0939 244.191 62.3877C245.937 63.0267 247.541 64.8798 248.332 67.3577C248.711 68.6875 248.711 70.1034 248.332 71.4331C247.911 72.8764 247.157 74.1903 246.135 75.26L246.176 75.0683C247.084 77.6598 248.073 80.4714 249.096 83.4037L249.157 83.5812L248.987 83.6451L247.425 84.1847L244.014 85.3704L243.843 85.4272L243.789 85.2497C242.854 82.3103 241.831 79.5697 241.06 76.8788L241.21 76.9995C239.876 76.8842 238.605 76.3632 237.553 75.5014C236.602 74.739 235.822 73.7698 235.268 72.6614C234.768 71.6785 234.519 70.5783 234.545 69.4664C234.576 68.33 234.849 67.215 235.343 66.2011C235.837 65.1872 236.541 64.2996 237.403 63.6018C237.758 63.3019 238.157 63.0623 238.583 62.8918C238.198 63.1298 237.825 63.3881 237.465 63.6657C236.517 64.4999 235.791 65.5731 235.357 66.7826C234.983 67.6947 234.809 68.6815 234.845 69.6721C234.882 70.6628 235.129 71.6327 235.568 72.5123C236.113 73.5786 236.874 74.5089 237.799 75.2387C238.802 76.0579 240.014 76.5518 241.285 76.6587H241.401L241.435 76.7652C242.185 79.4064 243.215 82.1683 244.164 85.1219L243.939 85.0083L247.35 83.8226L248.905 83.2759L248.796 83.5173C247.779 80.585 246.797 77.7663 245.897 75.1748V75.0683L245.978 74.9831C246.97 73.9578 247.71 72.6986 248.134 71.3124C248.496 70.0404 248.496 68.6865 248.134 67.4145C247.391 65.0289 245.856 63.2184 244.191 62.5794C243.454 62.2837 242.668 62.1461 241.878 62.1747C241.289 62.1888 240.703 62.2721 240.132 62.4232C239.116 62.6859 238.638 62.9273 238.631 62.8918Z" fill="#263238"/>
<path d="M217.545 267.897L149.4 267.571C145.465 267.548 141.699 265.901 138.93 262.991C136.161 260.081 134.615 256.146 134.631 252.05L135.354 74.2589C135.362 72.2298 135.754 70.2222 136.508 68.3509C137.262 66.4796 138.363 64.7813 139.748 63.3531C141.133 61.9248 142.775 60.7947 144.58 60.0272C146.385 59.2598 148.317 58.87 150.267 58.8803L218.404 59.2069C222.339 59.2276 226.106 60.873 228.876 63.7817C231.647 66.6905 233.195 70.6247 233.18 74.7204L232.457 252.504C232.449 254.534 232.057 256.543 231.303 258.415C230.55 260.287 229.449 261.986 228.064 263.415C226.679 264.845 225.038 265.976 223.233 266.745C221.428 267.514 219.495 267.906 217.545 267.897Z" fill="#455A64"/>
<path d="M218.302 65.3201H205.095C204.664 65.3284 204.239 65.425 203.843 65.6043C203.448 65.7837 203.091 66.0423 202.792 66.3654C202.493 66.6884 202.258 67.0696 202.101 67.4872C201.943 67.9048 201.867 68.3506 201.875 68.7991V71.2912C201.883 71.7393 201.806 72.1848 201.648 72.6019C201.491 73.0191 201.256 73.3999 200.957 73.7224C200.658 74.0449 200.3 74.3028 199.905 74.4814C199.51 74.66 199.085 74.7557 198.655 74.7631L172.909 74.6424C172.038 74.6182 171.212 74.2353 170.612 73.5776C170.012 72.92 169.687 72.0415 169.709 71.135V68.6429C169.731 67.7376 169.408 66.8601 168.809 66.2027C168.211 65.5452 167.386 65.1615 166.517 65.1355H161.871L150.308 65.0787C147.557 65.0616 144.913 66.1795 142.952 68.1876C140.992 70.1956 139.877 72.9302 139.85 75.7926L139.167 249.331C139.161 250.751 139.424 252.158 139.94 253.473C140.456 254.787 141.216 255.983 142.177 256.992C143.137 258 144.279 258.802 145.537 259.352C146.795 259.901 148.145 260.187 149.51 260.194L217.511 260.52C218.876 260.527 220.229 260.254 221.493 259.716C222.757 259.178 223.906 258.386 224.876 257.386C225.846 256.386 226.617 255.197 227.145 253.887C227.674 252.576 227.949 251.171 227.955 249.75L228.637 76.2115C228.653 73.3411 227.574 70.5813 225.636 68.539C223.698 66.4967 221.06 65.3389 218.302 65.3201Z" fill="white"/>
<path d="M209.154 237.367L158.589 237.14C158.064 237.14 157.641 236.544 157.648 235.819L157.703 222.053C157.703 221.343 158.132 220.732 158.658 220.732L209.222 220.973C209.513 221.026 209.773 221.193 209.949 221.44C210.124 221.688 210.201 221.996 210.163 222.301L210.116 236.054C210.116 236.785 209.679 237.374 209.154 237.367Z" fill="#FFC453"/>
<path d="M174.811 232.871C174.389 232.871 173.982 232.803 173.592 232.668C173.207 232.527 172.909 232.348 172.697 232.131L172.933 231.668C173.134 231.863 173.402 232.028 173.738 232.164C174.08 232.294 174.437 232.359 174.811 232.359C175.169 232.359 175.459 232.315 175.682 232.229C175.909 232.137 176.075 232.015 176.178 231.863C176.286 231.711 176.34 231.543 176.34 231.359C176.34 231.136 176.275 230.957 176.145 230.822C176.02 230.686 175.855 230.581 175.649 230.505C175.443 230.424 175.215 230.353 174.966 230.293C174.717 230.234 174.467 230.171 174.218 230.106C173.969 230.036 173.738 229.944 173.527 229.83C173.321 229.716 173.153 229.567 173.023 229.383C172.898 229.193 172.836 228.946 172.836 228.643C172.836 228.361 172.909 228.103 173.055 227.87C173.207 227.632 173.437 227.442 173.746 227.301C174.055 227.155 174.451 227.082 174.933 227.082C175.253 227.082 175.57 227.128 175.885 227.22C176.199 227.307 176.47 227.429 176.698 227.586L176.495 228.065C176.251 227.903 175.991 227.784 175.714 227.708C175.443 227.632 175.18 227.594 174.925 227.594C174.584 227.594 174.302 227.64 174.08 227.732C173.857 227.824 173.692 227.949 173.584 228.106C173.481 228.258 173.429 228.431 173.429 228.627C173.429 228.849 173.492 229.028 173.616 229.163C173.746 229.299 173.914 229.404 174.12 229.48C174.332 229.556 174.562 229.624 174.811 229.684C175.061 229.743 175.307 229.808 175.551 229.879C175.801 229.949 176.028 230.041 176.234 230.155C176.446 230.264 176.614 230.41 176.739 230.594C176.869 230.779 176.934 231.02 176.934 231.318C176.934 231.594 176.858 231.852 176.706 232.09C176.554 232.324 176.321 232.513 176.007 232.66C175.698 232.801 175.299 232.871 174.811 232.871ZM178.245 232.822V227.13H178.847V232.822H178.245ZM180.698 232.822V227.13H181.194L185.122 232.074H184.862V227.13H185.455V232.822H184.959L181.04 227.878H181.3V232.822H180.698ZM189.809 232.871C189.376 232.871 188.975 232.801 188.606 232.66C188.243 232.513 187.926 232.31 187.655 232.05C187.389 231.79 187.18 231.483 187.028 231.131C186.882 230.779 186.809 230.394 186.809 229.976C186.809 229.559 186.882 229.174 187.028 228.822C187.18 228.469 187.392 228.163 187.663 227.903C187.934 227.643 188.251 227.442 188.614 227.301C188.983 227.155 189.384 227.082 189.818 227.082C190.251 227.082 190.647 227.149 191.005 227.285C191.368 227.42 191.677 227.626 191.932 227.903L191.558 228.285C191.319 228.046 191.056 227.876 190.769 227.773C190.482 227.67 190.173 227.618 189.842 227.618C189.49 227.618 189.164 227.678 188.866 227.797C188.573 227.911 188.316 228.076 188.094 228.293C187.877 228.505 187.706 228.754 187.581 229.041C187.462 229.323 187.403 229.635 187.403 229.976C187.403 230.312 187.462 230.624 187.581 230.911C187.706 231.199 187.877 231.451 188.094 231.668C188.316 231.879 188.573 232.044 188.866 232.164C189.164 232.277 189.487 232.334 189.834 232.334C190.159 232.334 190.465 232.286 190.753 232.188C191.045 232.09 191.314 231.925 191.558 231.692L191.899 232.147C191.628 232.386 191.311 232.567 190.948 232.692C190.585 232.811 190.205 232.871 189.809 232.871ZM191.322 232.074V229.976H191.899V232.147L191.322 232.074ZM175.535 242.871C174.809 242.871 174.237 242.662 173.819 242.245C173.402 241.828 173.193 241.21 173.193 240.391V237.13H173.795V240.367C173.795 241.039 173.947 241.535 174.25 241.855C174.554 242.174 174.982 242.334 175.535 242.334C176.094 242.334 176.524 242.174 176.828 241.855C177.132 241.535 177.283 241.039 177.283 240.367V237.13H177.869V240.391C177.869 241.21 177.66 241.828 177.243 242.245C176.831 242.662 176.262 242.871 175.535 242.871ZM179.682 242.822V237.13H181.812C182.295 237.13 182.71 237.209 183.057 237.366C183.403 237.518 183.669 237.74 183.853 238.033C184.043 238.32 184.138 238.67 184.138 239.082C184.138 239.483 184.043 239.83 183.853 240.123C183.669 240.41 183.403 240.632 183.057 240.789C182.71 240.947 182.295 241.025 181.812 241.025H180.015L180.284 240.741V242.822H179.682ZM180.284 240.789L180.015 240.497H181.796C182.365 240.497 182.796 240.375 183.089 240.131C183.387 239.881 183.536 239.532 183.536 239.082C183.536 238.627 183.387 238.274 183.089 238.025C182.796 237.775 182.365 237.651 181.796 237.651H180.015L180.284 237.366V240.789Z" fill="#E8E8E3"/>
<path d="M168.675 116.334L151.129 116.251L151.115 119.602L168.66 119.685L168.675 116.334Z" fill="#FFC453"/>
<path opacity="0.1" d="M168.675 116.334L151.129 116.251L151.115 119.602L168.66 119.685L168.675 116.334Z" fill="black"/>
<path d="M220.11 136.909C220.247 136.895 220.383 136.861 220.512 136.81C220.701 136.733 220.865 136.602 220.986 136.433C221.106 136.263 221.179 136.062 221.194 135.851C221.194 134.723 221.194 133.075 221.194 130.96C221.194 129.902 221.194 128.716 221.194 127.41C221.194 127.09 221.194 126.756 221.194 126.423C221.239 126.099 221.171 125.769 221.003 125.493C220.909 125.36 220.787 125.252 220.646 125.177C220.505 125.101 220.35 125.061 220.191 125.059H219.127H209.27L152.211 124.839C152.065 124.837 151.92 124.871 151.79 124.939C151.659 125.007 151.546 125.107 151.461 125.23C151.296 125.508 151.233 125.838 151.283 126.16C151.283 126.87 151.283 127.58 151.283 128.29C151.283 129.71 151.283 131.13 151.283 132.55C151.283 133.26 151.283 133.97 151.283 134.68C151.255 135.011 151.255 135.343 151.283 135.674C151.319 135.816 151.386 135.947 151.478 136.058C151.57 136.169 151.686 136.256 151.815 136.313C151.95 136.369 152.094 136.395 152.238 136.391H155.711L170.862 136.476L196.513 136.64L213.806 136.782L218.506 136.838H219.728C220.007 136.838 220.144 136.838 220.144 136.838H219.728H218.506H213.806H196.513L170.862 136.753L155.711 136.689H152.238C152.047 136.697 151.857 136.663 151.679 136.59C151.499 136.51 151.339 136.389 151.212 136.235C151.084 136.081 150.992 135.899 150.942 135.702C150.903 135.516 150.889 135.325 150.901 135.134V134.609C150.901 133.899 150.901 133.189 150.901 132.479C150.901 131.059 150.901 129.639 150.901 128.219C150.901 127.509 150.901 126.799 150.901 126.089C150.888 125.9 150.888 125.71 150.901 125.521C150.927 125.312 151.004 125.114 151.126 124.946C151.244 124.774 151.4 124.635 151.58 124.54C151.761 124.445 151.961 124.397 152.163 124.399L209.222 124.726L219.08 124.797H220.144C220.331 124.797 220.516 124.844 220.682 124.934C220.848 125.025 220.991 125.155 221.099 125.315C221.291 125.624 221.369 125.995 221.317 126.359C221.317 126.692 221.317 127.026 221.317 127.346C221.317 128.638 221.317 129.824 221.317 130.896C221.317 133.026 221.269 134.659 221.256 135.795C221.239 136.013 221.163 136.222 221.036 136.397C220.909 136.572 220.737 136.705 220.539 136.782C220.41 136.865 220.261 136.909 220.11 136.909Z" fill="#E0E0E0"/>
<path d="M188.49 128.404H156.4V131.535H188.49V128.404Z" fill="#FFC453"/>
<path opacity="0.2" d="M188.49 128.404H156.4V131.535H188.49V128.404Z" fill="white"/>
<path d="M168.555 146.905L151.01 146.823L150.995 150.174L168.541 150.257L168.555 146.905Z" fill="#FFC453"/>
<path opacity="0.1" d="M168.555 146.905L151.01 146.823L150.995 150.174L168.541 150.257L168.555 146.905Z" fill="black"/>
<path d="M219.666 167.482C219.804 167.464 219.941 167.438 220.076 167.404C220.266 167.341 220.441 167.236 220.59 167.096C220.738 166.957 220.856 166.785 220.935 166.594C221.043 166.308 221.085 165.999 221.058 165.693C221.058 165.352 221.058 164.983 221.058 164.571C221.058 163.747 221.058 162.81 221.058 161.731V157.222C221.091 156.896 221.021 156.567 220.86 156.285C220.692 155.996 220.427 155.781 220.117 155.682C219.777 155.619 219.431 155.6 219.086 155.625H209.27L152.409 155.405C152.103 155.406 151.808 155.522 151.578 155.732C151.349 155.942 151.2 156.232 151.16 156.548C151.16 157.222 151.16 157.968 151.16 158.678C151.16 160.098 151.16 161.518 151.16 162.938C151.16 163.648 151.16 164.358 151.16 165.068C151.135 165.4 151.149 165.734 151.201 166.062C151.287 166.35 151.462 166.6 151.699 166.772C151.951 166.938 152.247 167.018 152.545 166.999H153.494H155.465L170.562 167.077L196.124 167.241L213.356 167.383L218.043 167.439H213.356H196.124L170.548 167.411L155.451 167.354H152.484C152.115 167.377 151.749 167.275 151.44 167.063C151.13 166.839 150.903 166.511 150.799 166.133C150.738 165.772 150.719 165.405 150.744 165.039C150.744 164.329 150.744 163.619 150.744 162.909C150.744 161.489 150.744 160.069 150.744 158.649C150.744 157.939 150.744 157.229 150.744 156.519C150.794 156.114 150.984 155.74 151.279 155.47C151.574 155.199 151.954 155.05 152.347 155.05L209.208 155.376L219.025 155.454C219.391 155.431 219.757 155.457 220.117 155.533C220.471 155.653 220.77 155.906 220.956 156.243C221.132 156.555 221.209 156.918 221.174 157.279C221.174 157.613 221.174 157.94 221.174 158.266C221.174 159.551 221.174 160.73 221.174 161.816C221.174 162.902 221.174 163.818 221.174 164.656C221.174 165.061 221.174 165.437 221.174 165.785C221.199 166.103 221.15 166.422 221.031 166.715C220.942 166.911 220.814 167.085 220.655 167.224C220.496 167.364 220.31 167.466 220.11 167.524C219.961 167.537 219.811 167.523 219.666 167.482Z" fill="#E0E0E0"/>
<path d="M168.423 178.805L150.877 178.722L150.863 182.073L168.409 182.156L168.423 178.805Z" fill="#FFC453"/>
<path opacity="0.1" d="M168.423 178.805L150.877 178.722L150.863 182.073L168.409 182.156L168.423 178.805Z" fill="black"/>
<path d="M219.53 199.368C219.668 199.351 219.804 199.325 219.939 199.29C220.129 199.227 220.304 199.123 220.452 198.985C220.6 198.847 220.718 198.677 220.799 198.488C220.906 198.201 220.948 197.892 220.921 197.586C220.921 197.238 220.921 196.876 220.921 196.457C220.921 195.641 220.921 194.696 220.921 193.617V189.109C220.954 188.782 220.885 188.453 220.724 188.171C220.551 187.887 220.288 187.676 219.98 187.575C219.641 187.509 219.295 187.488 218.95 187.511H209.133L152.272 187.291C151.967 187.292 151.671 187.408 151.442 187.618C151.212 187.829 151.064 188.118 151.024 188.434C151.024 189.144 151.024 189.854 151.024 190.564C151.024 191.984 151.024 193.404 151.024 194.824C151.024 195.534 151.024 196.244 151.024 196.954C150.999 197.283 151.012 197.615 151.065 197.941C151.147 198.231 151.323 198.482 151.563 198.651C151.813 198.821 152.111 198.901 152.409 198.878H155.376L170.473 198.963L196.035 199.127L213.267 199.269L217.954 199.325H213.267H196.035L170.473 199.247L155.376 199.183H152.409C152.04 199.209 151.672 199.107 151.365 198.892C151.055 198.669 150.828 198.34 150.724 197.962C150.663 197.601 150.644 197.234 150.669 196.869C150.669 196.159 150.669 195.449 150.669 194.739C150.669 193.319 150.669 191.899 150.669 190.479C150.669 189.769 150.669 189.059 150.669 188.313C150.717 187.908 150.906 187.535 151.2 187.264C151.494 186.994 151.873 186.844 152.266 186.844L209.126 187.17L218.943 187.248C219.309 187.225 219.676 187.251 220.035 187.326C220.389 187.447 220.688 187.7 220.874 188.036C221.05 188.349 221.127 188.712 221.092 189.073C221.092 189.407 221.092 189.74 221.092 190.06C221.092 191.345 221.092 192.524 221.092 193.61C221.092 194.696 221.092 195.612 221.092 196.45C221.092 196.855 221.092 197.231 221.092 197.579C221.118 197.896 221.069 198.216 220.949 198.509C220.86 198.705 220.732 198.879 220.573 199.018C220.414 199.158 220.228 199.26 220.028 199.318C219.868 199.375 219.697 199.392 219.53 199.368Z" fill="#E0E0E0"/>
<path d="M187.805 159.861L155.715 159.71L155.701 162.841L187.791 162.992L187.805 159.861Z" fill="#FFC453"/>
<path opacity="0.2" d="M187.805 159.861L155.715 159.71L155.701 162.841L187.791 162.992L187.805 159.861Z" fill="white"/>
<path d="M158.617 193.574C158.597 193.86 158.496 194.133 158.329 194.36C158.161 194.587 157.932 194.757 157.672 194.85C157.412 194.944 157.131 194.955 156.865 194.884C156.598 194.812 156.358 194.661 156.173 194.449C155.989 194.236 155.868 193.972 155.826 193.689C155.784 193.406 155.823 193.117 155.938 192.857C156.053 192.596 156.239 192.377 156.473 192.226C156.706 192.074 156.977 191.998 157.252 192.005C157.632 192.027 157.989 192.204 158.244 192.498C158.5 192.792 158.634 193.179 158.617 193.574Z" fill="#FFC453"/>
<path d="M162.962 193.596C162.976 193.796 162.95 193.997 162.885 194.186C162.821 194.375 162.72 194.548 162.588 194.695C162.457 194.842 162.298 194.959 162.121 195.039C161.944 195.119 161.753 195.16 161.56 195.16C161.368 195.16 161.177 195.119 161 195.039C160.823 194.959 160.664 194.842 160.533 194.695C160.401 194.548 160.3 194.375 160.236 194.186C160.171 193.997 160.145 193.796 160.159 193.596C160.145 193.396 160.171 193.195 160.236 193.006C160.3 192.816 160.401 192.643 160.533 192.496C160.664 192.35 160.823 192.233 161 192.153C161.177 192.073 161.368 192.031 161.56 192.031C161.753 192.031 161.944 192.073 162.121 192.153C162.298 192.233 162.457 192.35 162.588 192.496C162.72 192.643 162.821 192.816 162.885 193.006C162.95 193.195 162.976 193.396 162.962 193.596Z" fill="#FFC453"/>
<path d="M167.315 193.617C167.295 193.903 167.194 194.176 167.026 194.403C166.858 194.629 166.63 194.8 166.37 194.893C166.11 194.986 165.829 194.998 165.563 194.926C165.296 194.855 165.056 194.704 164.871 194.491C164.687 194.279 164.566 194.015 164.524 193.732C164.482 193.449 164.521 193.159 164.636 192.899C164.751 192.639 164.937 192.42 165.171 192.268C165.404 192.117 165.675 192.04 165.95 192.048C166.33 192.072 166.685 192.249 166.94 192.543C167.195 192.836 167.33 193.222 167.315 193.617Z" fill="#FFC453"/>
<path d="M171.66 193.638C171.64 193.924 171.54 194.197 171.372 194.424C171.204 194.651 170.976 194.821 170.716 194.914C170.455 195.008 170.175 195.019 169.908 194.948C169.642 194.876 169.401 194.725 169.217 194.513C169.032 194.3 168.911 194.036 168.87 193.753C168.828 193.47 168.867 193.181 168.982 192.92C169.097 192.66 169.283 192.441 169.516 192.29C169.75 192.138 170.021 192.062 170.296 192.069C170.675 192.093 171.031 192.271 171.286 192.564C171.541 192.857 171.675 193.243 171.66 193.638Z" fill="#FFC453"/>
<path d="M176.006 193.652C175.987 193.939 175.888 194.212 175.721 194.44C175.553 194.668 175.326 194.84 175.065 194.934C174.805 195.028 174.524 195.041 174.257 194.97C173.99 194.899 173.749 194.749 173.564 194.536C173.379 194.324 173.257 194.06 173.215 193.777C173.173 193.494 173.212 193.204 173.326 192.943C173.441 192.682 173.627 192.463 173.861 192.311C174.095 192.16 174.366 192.083 174.641 192.09C175.02 192.114 175.374 192.291 175.629 192.583C175.884 192.875 176.019 193.258 176.006 193.652Z" fill="#FFC453"/>
<path d="M180.358 193.674C180.34 193.958 180.242 194.231 180.076 194.458C179.91 194.685 179.685 194.857 179.426 194.953C179.168 195.048 178.889 195.063 178.622 194.995C178.356 194.927 178.115 194.78 177.928 194.572C177.741 194.363 177.617 194.102 177.571 193.821C177.525 193.54 177.559 193.251 177.668 192.989C177.778 192.728 177.959 192.506 178.188 192.35C178.418 192.194 178.686 192.111 178.96 192.112C179.344 192.127 179.707 192.299 179.969 192.592C180.231 192.885 180.371 193.274 180.358 193.674Z" fill="#FFC453"/>
<path d="M184.704 193.695C184.717 193.895 184.691 194.096 184.627 194.285C184.562 194.475 184.461 194.648 184.33 194.795C184.198 194.941 184.039 195.058 183.862 195.138C183.685 195.218 183.495 195.26 183.302 195.26C183.109 195.26 182.918 195.218 182.742 195.138C182.565 195.058 182.406 194.941 182.274 194.795C182.143 194.648 182.042 194.475 181.977 194.285C181.913 194.096 181.887 193.895 181.9 193.695C181.887 193.495 181.913 193.294 181.977 193.105C182.042 192.916 182.143 192.743 182.274 192.596C182.406 192.449 182.565 192.332 182.742 192.252C182.918 192.172 183.109 192.131 183.302 192.131C183.495 192.131 183.685 192.172 183.862 192.252C184.039 192.332 184.198 192.449 184.33 192.596C184.461 192.743 184.562 192.916 184.627 193.105C184.691 193.294 184.717 193.495 184.704 193.695Z" fill="#FFC453"/>
<path d="M189.049 193.716C189.031 194.001 188.933 194.274 188.767 194.501C188.601 194.728 188.376 194.9 188.117 194.995C187.859 195.091 187.58 195.105 187.314 195.038C187.047 194.97 186.806 194.823 186.619 194.614C186.432 194.405 186.308 194.145 186.262 193.863C186.216 193.582 186.25 193.293 186.359 193.032C186.469 192.77 186.65 192.548 186.879 192.392C187.109 192.236 187.377 192.154 187.651 192.154C188.035 192.169 188.398 192.342 188.66 192.635C188.922 192.927 189.062 193.316 189.049 193.716Z" fill="#FFC453"/>
<path d="M193.395 193.738C193.376 194.024 193.277 194.298 193.11 194.525C192.943 194.753 192.715 194.925 192.455 195.019C192.194 195.113 191.913 195.126 191.646 195.055C191.38 194.985 191.138 194.834 190.953 194.622C190.768 194.409 190.647 194.145 190.604 193.862C190.562 193.579 190.601 193.289 190.716 193.028C190.83 192.768 191.016 192.548 191.25 192.396C191.484 192.245 191.755 192.168 192.031 192.176C192.409 192.2 192.763 192.376 193.018 192.668C193.273 192.96 193.408 193.344 193.395 193.738Z" fill="#FFC453"/>
<g opacity="0.2">
<path d="M158.617 193.574C158.597 193.86 158.496 194.133 158.329 194.36C158.161 194.587 157.932 194.757 157.672 194.85C157.412 194.944 157.131 194.955 156.865 194.884C156.598 194.812 156.358 194.661 156.173 194.449C155.989 194.236 155.868 193.972 155.826 193.689C155.784 193.406 155.823 193.117 155.938 192.857C156.053 192.596 156.239 192.377 156.473 192.226C156.706 192.074 156.977 191.998 157.252 192.005C157.632 192.027 157.989 192.204 158.244 192.498C158.5 192.792 158.634 193.179 158.617 193.574Z" fill="white"/>
<path d="M162.962 193.596C162.976 193.796 162.95 193.997 162.885 194.186C162.821 194.375 162.72 194.548 162.588 194.695C162.457 194.842 162.298 194.959 162.121 195.039C161.944 195.119 161.753 195.16 161.56 195.16C161.368 195.16 161.177 195.119 161 195.039C160.823 194.959 160.664 194.842 160.533 194.695C160.401 194.548 160.3 194.375 160.236 194.186C160.171 193.997 160.145 193.796 160.159 193.596C160.145 193.396 160.171 193.195 160.236 193.006C160.3 192.816 160.401 192.643 160.533 192.496C160.664 192.35 160.823 192.233 161 192.153C161.177 192.073 161.368 192.031 161.56 192.031C161.753 192.031 161.944 192.073 162.121 192.153C162.298 192.233 162.457 192.35 162.588 192.496C162.72 192.643 162.821 192.816 162.885 193.006C162.95 193.195 162.976 193.396 162.962 193.596Z" fill="white"/>
<path d="M167.315 193.617C167.295 193.903 167.194 194.176 167.027 194.403C166.859 194.629 166.63 194.8 166.37 194.893C166.11 194.986 165.829 194.998 165.563 194.926C165.296 194.855 165.056 194.704 164.871 194.491C164.687 194.279 164.566 194.015 164.524 193.732C164.482 193.449 164.521 193.159 164.636 192.899C164.751 192.639 164.937 192.42 165.171 192.268C165.404 192.117 165.675 192.04 165.95 192.048C166.33 192.072 166.685 192.249 166.94 192.543C167.195 192.836 167.33 193.222 167.315 193.617Z" fill="white"/>
<path d="M171.66 193.638C171.64 193.924 171.54 194.197 171.372 194.424C171.204 194.651 170.976 194.821 170.716 194.914C170.456 195.007 170.175 195.019 169.908 194.948C169.642 194.876 169.401 194.725 169.217 194.513C169.032 194.3 168.912 194.036 168.87 193.753C168.828 193.47 168.867 193.181 168.982 192.92C169.097 192.66 169.283 192.441 169.516 192.289C169.75 192.138 170.021 192.062 170.296 192.069C170.675 192.093 171.031 192.271 171.286 192.564C171.541 192.857 171.675 193.243 171.66 193.638Z" fill="white"/>
<path d="M176.006 193.652C175.987 193.939 175.888 194.212 175.721 194.44C175.554 194.668 175.326 194.84 175.066 194.934C174.805 195.028 174.524 195.041 174.257 194.97C173.99 194.899 173.749 194.749 173.564 194.536C173.379 194.324 173.257 194.06 173.215 193.777C173.173 193.494 173.212 193.204 173.326 192.943C173.441 192.682 173.627 192.463 173.861 192.311C174.095 192.16 174.366 192.083 174.642 192.09C175.02 192.114 175.374 192.291 175.629 192.583C175.884 192.875 176.019 193.258 176.006 193.652Z" fill="white"/>
<path d="M180.358 193.674C180.34 193.958 180.242 194.231 180.076 194.458C179.91 194.685 179.685 194.857 179.426 194.953C179.168 195.048 178.889 195.063 178.622 194.995C178.356 194.927 178.115 194.78 177.928 194.572C177.741 194.363 177.617 194.102 177.571 193.821C177.525 193.54 177.559 193.251 177.668 192.989C177.778 192.728 177.959 192.506 178.188 192.35C178.418 192.194 178.686 192.111 178.96 192.112C179.344 192.127 179.707 192.299 179.969 192.592C180.231 192.885 180.371 193.274 180.358 193.674Z" fill="white"/>
<path d="M184.704 193.695C184.717 193.895 184.691 194.096 184.627 194.285C184.562 194.474 184.461 194.648 184.33 194.794C184.198 194.941 184.039 195.058 183.862 195.138C183.685 195.218 183.495 195.259 183.302 195.259C183.109 195.259 182.918 195.218 182.742 195.138C182.565 195.058 182.406 194.941 182.274 194.794C182.143 194.648 182.042 194.474 181.977 194.285C181.913 194.096 181.887 193.895 181.9 193.695C181.887 193.495 181.913 193.294 181.977 193.105C182.042 192.916 182.143 192.742 182.274 192.596C182.406 192.449 182.565 192.332 182.742 192.252C182.918 192.172 183.109 192.131 183.302 192.131C183.495 192.131 183.685 192.172 183.862 192.252C184.039 192.332 184.198 192.449 184.33 192.596C184.461 192.742 184.562 192.916 184.627 193.105C184.691 193.294 184.717 193.495 184.704 193.695Z" fill="white"/>
<path d="M189.049 193.716C189.031 194.001 188.933 194.274 188.767 194.501C188.601 194.728 188.376 194.9 188.117 194.995C187.859 195.091 187.58 195.105 187.314 195.038C187.047 194.97 186.806 194.823 186.619 194.614C186.432 194.405 186.308 194.145 186.262 193.863C186.216 193.582 186.25 193.293 186.359 193.032C186.469 192.77 186.65 192.548 186.879 192.392C187.109 192.236 187.377 192.154 187.651 192.154C188.035 192.169 188.398 192.342 188.66 192.635C188.922 192.927 189.062 193.316 189.049 193.716Z" fill="white"/>
<path d="M193.395 193.738C193.376 194.024 193.277 194.298 193.11 194.525C192.943 194.753 192.715 194.925 192.455 195.019C192.194 195.113 191.913 195.126 191.646 195.055C191.38 194.985 191.138 194.834 190.953 194.622C190.768 194.409 190.647 194.145 190.604 193.862C190.562 193.579 190.601 193.289 190.716 193.028C190.83 192.768 191.016 192.548 191.25 192.396C191.484 192.245 191.755 192.168 192.031 192.176C192.409 192.2 192.763 192.376 193.018 192.668C193.273 192.96 193.408 193.344 193.395 193.738Z" fill="white"/>
</g>
<path d="M187.221 91.2421C187.695 91.0249 188.097 90.6675 188.377 90.2143C188.658 89.761 188.803 89.2321 188.797 88.6932C188.815 88.3429 188.764 87.9925 188.647 87.6634C188.53 87.3343 188.351 87.0333 188.119 86.7789C187.887 86.5244 187.607 86.3218 187.297 86.1833C186.988 86.0448 186.654 85.9734 186.317 85.9734C185.98 85.9734 185.647 86.0448 185.337 86.1833C185.027 86.3218 184.748 86.5244 184.516 86.7789C184.284 87.0333 184.104 87.3343 183.987 87.6634C183.871 87.9925 183.82 88.3429 183.837 88.6932C183.827 89.2375 183.972 89.7728 184.254 90.2315C184.535 90.6902 184.941 91.0517 185.42 91.2705C181.6 91.8669 181.77 96.1837 181.77 96.1837L190.803 96.2263C190.803 96.2263 191.014 91.8314 187.221 91.2421Z" fill="#FFC453"/>
<path opacity="0.1" d="M187.221 91.2421C187.695 91.0249 188.097 90.6675 188.377 90.2143C188.658 89.761 188.803 89.2321 188.797 88.6932C188.815 88.3429 188.764 87.9925 188.647 87.6634C188.53 87.3343 188.351 87.0333 188.119 86.7789C187.887 86.5244 187.607 86.3218 187.297 86.1833C186.988 86.0448 186.654 85.9734 186.317 85.9734C185.98 85.9734 185.647 86.0448 185.337 86.1833C185.027 86.3218 184.748 86.5244 184.516 86.7789C184.284 87.0333 184.104 87.3343 183.987 87.6634C183.871 87.9925 183.82 88.3429 183.837 88.6932C183.827 89.2375 183.972 89.7728 184.254 90.2315C184.535 90.6902 184.941 91.0517 185.42 91.2705C181.6 91.8669 181.77 96.1837 181.77 96.1837L190.803 96.2263C190.803 96.2263 191.014 91.8314 187.221 91.2421Z" fill="black"/>
<path d="M201.898 99.0106L169.706 98.8585L169.688 102.863L201.881 103.015L201.898 99.0106Z" fill="#FFC453"/>
<path opacity="0.2" d="M201.898 99.0106L169.706 98.8585L169.688 102.863L201.881 103.015L201.898 99.0106Z" fill="white"/>
<path d="M116.757 318.321V312.251L106.299 312.173L106.211 321.353L106.859 321.403C109.744 321.594 121.54 321.878 123.477 321.254C125.633 320.558 116.757 318.321 116.757 318.321Z" fill="#FFC453"/>
<path d="M123.723 320.686C123.723 320.785 119.807 320.87 114.984 320.87C110.161 320.87 106.245 320.785 106.245 320.686C106.245 320.586 110.161 320.501 114.984 320.501C119.807 320.501 123.723 320.586 123.723 320.686Z" fill="#263238"/>
<path d="M116.942 319.564C116.853 319.514 116.942 319.195 117.153 318.854C117.364 318.513 117.651 318.371 117.719 318.442C117.787 318.513 117.644 318.783 117.44 319.074C117.235 319.365 117.03 319.614 116.942 319.564Z" fill="#263238"/>
<path d="M117.61 319.961C117.515 319.961 117.562 319.564 117.767 319.188C117.972 318.811 118.245 318.584 118.32 318.641C118.395 318.698 118.272 319.017 118.081 319.351C117.89 319.685 117.699 319.997 117.61 319.961Z" fill="#263238"/>
<path d="M109.396 320.657C109.356 320.657 109.199 320.529 108.974 320.26C108.699 319.913 108.393 319.594 108.059 319.308C107.732 319.036 107.341 318.857 106.927 318.79C106.606 318.747 106.402 318.79 106.381 318.747C106.361 318.705 106.559 318.556 106.934 318.527C107.429 318.516 107.912 318.687 108.298 319.01C108.66 319.317 108.965 319.69 109.199 320.111C109.356 320.423 109.437 320.629 109.396 320.657Z" fill="#263238"/>
<path d="M116.976 318.421C117.023 318.506 116.846 318.719 116.546 318.833C116.246 318.946 115.98 318.904 115.966 318.833C115.952 318.762 116.164 318.613 116.423 318.513C116.682 318.414 116.921 318.336 116.976 318.421Z" fill="#263238"/>
<path d="M116.812 317.831C116.812 317.938 116.539 318.023 116.184 318.03C115.83 318.037 115.55 317.952 115.557 317.853C115.564 317.753 115.843 317.661 116.184 317.654C116.525 317.647 116.798 317.732 116.812 317.831Z" fill="#263238"/>
<path d="M142.51 318.321V312.251L132.052 312.173L131.964 321.261L132.612 321.31C135.497 321.502 147.299 321.878 149.23 321.254C151.386 320.558 142.51 318.321 142.51 318.321Z" fill="#FFC453"/>
<path d="M149.475 320.7C149.475 320.799 145.566 320.884 140.736 320.884C135.907 320.884 132.004 320.799 132.004 320.7C132.004 320.6 135.913 320.515 140.736 320.515C145.56 320.515 149.475 320.6 149.475 320.7Z" fill="#263238"/>
<path d="M142.694 319.564C142.612 319.514 142.694 319.195 142.906 318.854C143.117 318.513 143.404 318.371 143.472 318.442C143.54 318.513 143.397 318.783 143.192 319.074C142.988 319.365 142.783 319.614 142.694 319.564Z" fill="#263238"/>
<path d="M143.363 319.961C143.274 319.961 143.315 319.564 143.527 319.188C143.738 318.811 144.004 318.584 144.079 318.641C144.154 318.698 144.025 319.017 143.834 319.351C143.643 319.685 143.458 319.997 143.363 319.961Z" fill="#263238"/>
<path d="M135.149 320.657C135.108 320.657 134.958 320.529 134.726 320.26C134.452 319.913 134.145 319.594 133.812 319.308C133.485 319.036 133.094 318.857 132.68 318.79C132.366 318.747 132.154 318.79 132.134 318.747C132.114 318.705 132.311 318.556 132.687 318.527C133.182 318.516 133.665 318.687 134.051 319.01C134.415 319.315 134.72 319.688 134.951 320.111C135.108 320.423 135.19 320.629 135.149 320.657Z" fill="#263238"/>
<path d="M142.729 318.421C142.776 318.506 142.599 318.719 142.299 318.833C141.999 318.946 141.733 318.904 141.719 318.833C141.705 318.762 141.917 318.613 142.176 318.513C142.435 318.414 142.674 318.336 142.729 318.421Z" fill="#263238"/>
<path d="M142.578 317.831C142.578 317.938 142.305 318.023 141.951 318.03C141.596 318.037 141.323 317.952 141.33 317.853C141.337 317.753 141.61 317.661 141.951 317.654C142.292 317.647 142.578 317.732 142.578 317.831Z" fill="#263238"/>
<path d="M181.04 138.052C180.768 137.761 180.092 137.903 180.092 137.903C180.16 137.494 180.16 137.077 180.092 136.668C179.969 136.27 179.11 136.348 179.11 136.348C179.07 136.014 179.07 135.675 179.11 135.34C179.117 135.266 179.101 135.191 179.066 135.127C179.031 135.062 178.977 135.01 178.912 134.978C178.505 134.805 178.068 134.723 177.629 134.737C177.104 134.346 179.233 131.243 180.024 130.249C180.815 129.255 180.672 128.482 179.969 128.482C179.485 128.482 177.002 131.464 176.238 132.465C175.474 133.466 173.448 136.249 173.379 134.027C173.311 131.804 172.452 130.129 171.913 129.845C171.374 129.561 170.801 130.228 171.094 130.846C171.352 131.548 171.513 132.284 171.572 133.033C171.646 133.629 171.62 134.234 171.497 134.822C171.27 135.915 170.962 136.988 170.576 138.031H170.521C170.521 138.031 155.636 152.891 154.558 153.949C153.596 154.901 134.249 152.82 130.367 152.394C129.048 152.193 127.716 152.099 126.383 152.11C124.698 152.188 124.398 152.437 122.72 152.458C118.482 152.507 114.253 152.894 110.072 153.616C108.179 153.951 106.41 154.82 104.959 156.13C103.508 157.44 102.431 159.139 101.845 161.042C97.9356 173.751 89.0808 203.834 87.5186 220.732C86.3381 222.96 85.2723 225.252 84.3259 227.598C83.2276 230.707 83.4936 230.814 83.862 230.885C84.858 231.077 85.9904 225.496 86.4134 226.845C86.8364 228.194 84.2645 233.498 85.3083 233.654C86.6726 233.853 87.7573 227.974 87.8869 227.505C88.0166 227.037 88.6919 227.186 88.5691 227.626C88.3713 228.251 86.4543 234.875 87.7914 235.088C88.5282 235.202 88.6101 233.803 88.6101 233.803C88.6101 233.803 89.9745 227.463 90.5953 227.59C91.2161 227.718 90.5543 231.46 90.2405 232.71C89.9267 233.959 90.3633 234.591 91.0046 234.286C91.4412 234.073 92.4849 230.274 92.7715 229.039C93.058 227.803 93.7743 224.381 94.7362 226.362C95.6981 228.343 97.158 229.493 97.7583 229.522C97.8936 229.505 98.0211 229.447 98.1244 229.355C98.2277 229.263 98.3022 229.141 98.3381 229.004C98.3741 228.867 98.3699 228.722 98.3262 228.588C98.2824 228.454 98.201 228.336 98.0926 228.251C97.5762 227.726 97.133 227.129 96.7759 226.476C96.4577 225.967 96.2269 225.405 96.0937 224.814C95.8188 223.637 95.6588 222.433 95.6162 221.222L95.507 220.512C97.0352 212.638 101.435 189.527 107.787 174.766L110.393 180.347L111.525 184.479L104.58 202.322L134.201 201.917L129.78 184.209L135.149 165.749C140.955 165.884 155.861 166.112 158.344 164.94C161.468 163.52 177.629 142.277 177.629 142.277C178.683 141.425 179.692 140.515 180.652 139.55C180.652 139.55 181.634 138.691 181.04 138.052Z" fill="#FFBE9D"/>
<path d="M103.277 189.137C104.137 186.084 108.551 170.989 108.551 170.989C108.551 170.989 110.72 183.294 110.147 184.778C109.62 186.048 108.997 187.273 108.285 188.441C103.277 196.372 103.932 200.341 103.932 200.341L134.187 199.382C134.256 194.98 131.752 184.742 131.233 183.109C130.715 181.476 132.441 176.13 132.441 176.13C132.441 176.13 135.852 172.516 135.729 170.656C135.664 168.985 135.466 167.322 135.136 165.686L153.555 166.396L152.975 153.403L126.52 150.648C125.599 153.353 117.269 152.025 117.269 152.025C108.278 152.338 107.718 154.056 103.98 157.08C100.241 160.105 94.054 186.063 94.054 186.063L103.277 189.137Z" fill="#FFC453"/>
<path d="M121.164 186.063C120.64 186.16 120.106 186.189 119.575 186.148C118.586 186.148 117.228 186.077 115.734 185.921C114.24 185.764 112.889 185.544 111.927 185.346C111.397 185.274 110.877 185.136 110.379 184.934C110.912 184.934 111.444 184.986 111.968 185.09C112.937 185.218 114.281 185.395 115.768 185.551C117.255 185.708 118.606 185.814 119.582 185.885C120.113 185.892 120.643 185.952 121.164 186.063Z" fill="#263238"/>
<path d="M123.238 183.386C122.714 183.653 122.159 183.851 121.587 183.975C118.866 184.719 116.058 185.066 113.244 185.005C112.662 185.024 112.08 184.967 111.511 184.834C112.086 184.759 112.665 184.728 113.244 184.742C114.315 184.706 115.789 184.628 117.412 184.43C119.036 184.231 120.482 183.947 121.505 183.72C122.074 183.562 122.653 183.45 123.238 183.386Z" fill="#263238"/>
<path d="M133.417 171.444C133.403 171.985 133.332 172.523 133.205 173.048C133.028 174.035 132.755 175.384 132.407 176.861C132.059 178.338 131.725 179.701 131.425 180.624C131.304 181.152 131.125 181.665 130.892 182.151C130.93 181.611 131.027 181.077 131.179 180.56C131.438 179.453 131.732 178.175 132.059 176.776C132.386 175.377 132.7 174.099 132.96 172.992C133.052 172.458 133.205 171.939 133.417 171.444Z" fill="#263238"/>
<path d="M103.598 187.326C102.02 187.073 100.462 186.695 98.9385 186.197C97.3816 185.819 95.8539 185.32 94.3678 184.706C95.9453 184.964 97.5025 185.342 99.0272 185.835C100.584 186.213 102.112 186.711 103.598 187.326Z" fill="#263238"/>
<path d="M135.463 165.529C135.206 165.575 134.943 165.575 134.685 165.529C133.973 165.453 133.273 165.279 132.605 165.011C131.489 164.575 130.473 163.9 129.622 163.031C128.772 162.161 128.105 161.116 127.666 159.963C127.18 158.694 126.972 157.328 127.059 155.966C127.089 154.842 127.412 153.747 127.993 152.799C128.402 152.16 129.012 151.691 129.719 151.471C129.908 151.417 130.103 151.391 130.299 151.393C130.435 151.393 130.504 151.393 130.504 151.393C130.504 151.393 130.217 151.393 129.76 151.585C129.112 151.834 128.562 152.301 128.198 152.913C127.27 154.432 127.011 157.208 128 159.8C128.46 161.022 129.181 162.119 130.108 163.009C130.867 163.737 131.742 164.323 132.693 164.741C133.586 165.108 134.515 165.373 135.463 165.529Z" fill="#263238"/>
<path d="M151.365 166.14C151.194 163.963 151.14 161.777 151.201 159.594C151.148 157.412 151.212 155.229 151.392 153.055C151.563 155.23 151.618 157.413 151.556 159.594C151.613 161.778 151.55 163.964 151.365 166.14Z" fill="#263238"/>
<path d="M126.342 151.443C126.417 149.86 126.574 148.07 126.574 148.07C126.574 148.07 130.34 147.637 130.565 143.59C130.79 139.543 130.565 130.207 130.565 130.207L123.743 126.572L116.171 132.77L117.337 153.005L124.282 153.466C124.813 153.482 125.328 153.277 125.714 152.898C126.1 152.519 126.326 151.995 126.342 151.443Z" fill="#FFBE9D"/>
<path d="M127.018 140.388C127.018 140.388 127.018 140.466 126.956 140.559C126.905 140.626 126.84 140.679 126.765 140.713C126.69 140.748 126.608 140.763 126.526 140.757C126.09 140.757 125.667 140.232 125.517 139.621C125.445 139.325 125.445 139.016 125.517 138.72C125.531 138.591 125.576 138.467 125.647 138.36C125.718 138.254 125.814 138.167 125.926 138.109C126.018 138.07 126.121 138.07 126.213 138.109C126.281 138.144 126.336 138.202 126.369 138.272C126.417 138.393 126.369 138.471 126.369 138.464C126.369 138.457 126.369 138.393 126.301 138.322C126.266 138.271 126.213 138.236 126.154 138.223C126.095 138.21 126.033 138.22 125.981 138.251C125.897 138.304 125.827 138.378 125.779 138.466C125.73 138.554 125.703 138.654 125.701 138.755C125.644 139.019 125.644 139.293 125.701 139.558C125.837 140.111 126.206 140.559 126.533 140.601C126.597 140.61 126.662 140.606 126.725 140.587C126.787 140.569 126.845 140.537 126.895 140.495C126.977 140.438 127.004 140.381 127.018 140.388Z" fill="#EB996E"/>
<path d="M132.905 128.02C132.38 126.16 130.476 125.237 128.743 124.726C126.103 123.945 123.252 123.604 120.673 124.591C118.094 125.578 114.997 127.31 114.997 130.271C113.476 130.143 112.603 131.527 112.002 133.246C111.619 134.292 111.389 135.394 111.32 136.512C111.129 140.388 110.085 145.742 107.671 148.582C106.306 150.165 104.416 151.258 103.639 153.232C102.957 154.943 103.311 156.974 102.677 158.706C102.111 160.233 100.862 161.319 99.9481 162.647C99.0168 164.153 98.4687 165.881 98.3553 167.668C98.2419 169.455 98.567 171.243 99.3 172.864C100.038 174.443 101.078 175.849 102.355 176.996C103.632 178.143 105.12 179.008 106.729 179.538C109.916 180.547 113.314 180.581 116.519 179.637C118.924 179.039 121.168 177.881 123.081 176.25C125.039 174.586 126.384 172.268 126.888 169.69C127.372 166.793 126.595 163.847 126.015 160.964C124.2 151.855 124.719 151.379 127.011 142.923C127.065 142.774 127.093 142.618 127.133 142.469C127.174 142.319 127.195 142.248 127.222 142.135C127.287 141.801 127.322 141.461 127.324 141.12C126.99 141.249 126.626 141.277 126.277 141.199C125.928 141.121 125.607 140.94 125.353 140.679C125.098 140.401 124.92 140.056 124.839 139.681C124.757 139.306 124.774 138.915 124.889 138.549C125.05 138.15 125.29 137.789 125.593 137.492C125.896 137.195 126.256 136.967 126.649 136.824C127.406 136.497 128.218 136.327 128.962 135.965C130.538 135.184 131.629 133.565 132.373 131.868C132.984 130.692 133.173 129.328 132.905 128.02Z" fill="#263238"/>
<path d="M127.29 140.58C127.435 140.802 127.554 141.04 127.645 141.29C127.85 141.737 128.123 142.369 128.423 143.1L128.477 143.235H128.334L127.652 143.299C127.181 143.299 126.786 143.392 126.322 143.384C126.281 143.375 126.244 143.355 126.213 143.327C126.182 143.298 126.158 143.262 126.144 143.221C126.124 143.157 126.124 143.087 126.144 143.022C126.16 142.927 126.181 142.832 126.206 142.738L126.329 142.234C126.39 141.898 126.486 141.57 126.615 141.254C126.602 141.597 126.554 141.938 126.472 142.27L126.376 142.774C126.342 142.944 126.281 143.207 126.376 143.186C126.717 143.186 127.202 143.108 127.652 143.079L128.334 143.015L128.246 143.171C127.952 142.461 127.707 141.794 127.563 141.333C127.438 141.097 127.346 140.843 127.29 140.58Z" fill="#FFC453"/>
<path d="M103.932 200.341L134.187 199.382L147.354 252.874L144.932 314.232H128.935L130.892 254.18L119.193 216.94L120.994 316.61L104.826 316.859L103.127 223.174C103.052 220.569 102.234 214.697 102.541 212.112L103.932 200.341Z" fill="#263238"/>
<path d="M123.218 217.7C122.723 217.733 122.225 217.702 121.737 217.608C120.823 217.494 119.575 217.295 118.204 217.011C116.832 216.727 115.605 216.401 114.718 216.138C114.244 216.03 113.785 215.858 113.353 215.627C113.353 215.521 115.577 216.074 118.306 216.649C121.035 217.225 123.231 217.594 123.218 217.7Z" fill="#455A64"/>
<path d="M144.768 310.866C144.768 310.966 141.146 311.051 136.677 311.051C132.209 311.051 128.58 310.966 128.58 310.866C128.58 310.767 132.202 310.682 136.677 310.682C141.153 310.682 144.768 310.76 144.768 310.866Z" fill="#455A64"/>
<path d="M120.851 314.019C120.851 314.125 117.33 314.203 112.992 314.203C108.653 314.203 105.14 314.125 105.14 314.019C105.14 313.912 108.66 313.834 112.992 313.834C117.324 313.834 120.851 313.919 120.851 314.019Z" fill="#455A64"/>
<path d="M118.763 313.763C118.668 313.763 118.245 291.988 117.815 265.128C117.385 238.269 117.133 216.479 117.221 216.479C117.31 216.479 117.747 238.248 118.17 265.121C118.592 291.995 118.865 313.763 118.763 313.763Z" fill="#455A64"/>
<path d="M142.619 310.866C142.612 310.77 142.612 310.672 142.619 310.575V309.723C142.619 308.956 142.674 307.856 142.715 306.457C142.81 303.617 142.947 299.492 143.117 294.437C143.486 284.27 144.004 270.254 144.57 254.783C144.57 254.634 144.57 254.492 144.57 254.365V254.414C140.989 239.504 137.748 225.972 135.395 216.181L132.666 204.601C132.352 203.245 132.114 202.187 131.943 201.448C131.861 201.1 131.807 200.831 131.759 200.625C131.732 200.532 131.716 200.437 131.711 200.341C131.746 200.43 131.774 200.523 131.793 200.618C131.847 200.816 131.916 201.086 132.011 201.427C132.195 202.137 132.461 203.216 132.803 204.565C133.485 207.306 134.447 211.253 135.647 216.117C138.021 225.901 141.296 239.398 144.925 254.329V254.379C144.925 254.507 144.925 254.656 144.925 254.798C144.318 270.269 143.765 284.277 143.363 294.444C143.151 299.506 142.974 303.603 142.851 306.457C142.783 307.877 142.728 308.956 142.694 309.723C142.694 310.085 142.653 310.369 142.647 310.575C142.648 310.673 142.638 310.771 142.619 310.866Z" fill="#455A64"/>
<path d="M137.4 253.115C136.251 253.508 135.068 253.782 133.867 253.931C132.393 254.194 131.138 254.379 130.572 254.407V254.265C130.756 254.322 130.851 254.357 130.851 254.386C130.851 254.414 130.735 254.386 130.544 254.386H130.135L130.544 254.258C131.077 254.095 132.332 253.825 133.805 253.548C134.987 253.281 136.191 253.136 137.4 253.115Z" fill="#455A64"/>
<path d="M137.121 255.153C136.057 255.203 134.99 255.153 133.935 255.004C132.869 254.981 131.808 254.86 130.763 254.641C132.895 254.46 135.041 254.633 137.121 255.153Z" fill="#455A64"/>
<path opacity="0.2" d="M103.802 201.47C104.161 201.948 104.612 202.343 105.127 202.628C105.642 202.913 106.209 203.082 106.79 203.124C108.009 203.274 109.242 203.25 110.454 203.053C118.265 202.151 126.54 201.321 134.187 199.382C124.289 199.957 113.831 199.766 103.932 200.341L103.83 201.221" fill="black"/>
<g opacity="0.2">
<path d="M114.001 215.989L119.582 238.524L119.193 216.94L114.001 215.989Z" fill="black"/>
</g>
</g>
<defs>
<filter id="filter0_d_1117_514" x="-4" y="0" width="349.097" height="363" filterUnits="userSpaceOnUse" color-interpolation-filters="sRGB">
<feFlood flood-opacity="0" result="BackgroundImageFix"/>
<feColorMatrix in="SourceAlpha" type="matrix" values="0 0 0 0 0 0 0 0 0 0 0 0 0 0 0 0 0 0 127 0" result="hardAlpha"/>
<feOffset dy="4"/>
<feGaussianBlur stdDeviation="2"/>
<feComposite in2="hardAlpha" operator="out"/>
<feColorMatrix type="matrix" values="0 0 0 0 0 0 0 0 0 0 0 0 0 0 0 0 0 0 0.25 0"/>
<feBlend mode="normal" in2="BackgroundImageFix" result="effect1_dropShadow_1117_514"/>
<feBlend mode="normal" in="SourceGraphic" in2="effect1_dropShadow_1117_514" result="shape"/>
</filter>
</defs>
</svg>
