<svg width="152" height="161" viewBox="0 0 152 161" fill="none" xmlns="http://www.w3.org/2000/svg">
<rect opacity="0.1" x="5" y="0.00366211" width="140" height="140" rx="39.2683" fill="#4A3AFF"/>
<g filter="url(#filter0_d_2208_267)">
<path d="M52.1598 31.7841C56.9127 31.788 61.5391 30.2526 65.3465 27.4077L71.841 22.555C74.2666 20.8561 77.4962 20.8561 79.9218 22.555L86.8347 27.5683C90.567 30.2749 95.0552 31.7406 99.6655 31.7584L105.161 31.7796C110.606 31.7796 115.021 36.1938 115.021 41.6389C115.021 46.6058 117.219 51.3182 121.024 54.5103L121.26 54.7083C121.739 55.1097 122.015 55.7024 122.015 56.327V112.107C122.015 115.997 118.862 119.149 114.973 119.149H37.0267C33.1376 119.149 29.9844 115.997 29.9844 112.107L29.9878 56.3268C29.9878 55.7023 30.2643 55.1098 30.7423 54.7084L30.9738 54.5142C34.7802 51.321 36.9786 46.6073 36.9786 41.6389C36.9786 36.1938 41.3924 31.7796 46.8379 31.7796L52.1598 31.7841Z" fill="#FF0000" fill-opacity="0.01"/>
</g>
<mask id="mask0_2208_267" style="mask-type:alpha" maskUnits="userSpaceOnUse" x="29" y="18" width="94" height="102">
<path d="M58.0746 31.7796L71.9592 20.1321C74.3848 18.4332 77.6144 18.4332 80.04 20.1321L93.9256 31.7796H105.161C110.606 31.7796 115.021 36.1938 115.021 41.6389V49.4746L121.26 54.7083C121.739 55.1097 122.015 55.7023 122.015 56.327V112.107C122.015 115.997 118.862 119.149 114.973 119.149H37.0267C33.1376 119.149 29.9844 115.997 29.9844 112.107L29.9878 56.3268C29.9878 55.7023 30.2643 55.1098 30.7423 54.7084L36.9786 49.4768V41.6389C36.9786 36.1938 41.3924 31.7796 46.8379 31.7796H58.0746Z" fill="#EBE9FF"/>
</mask>
<g mask="url(#mask0_2208_267)">
<path d="M69.7104 23.0912L33.1119 52.8053C31.1356 54.4099 29.9879 56.8198 29.9877 59.3655L29.9847 112.107C29.9847 115.997 33.1376 119.15 37.027 119.15H114.973C118.863 119.15 122.015 115.997 122.015 112.107V59.3756C122.015 56.8242 120.863 54.4093 118.879 52.8048L82.1247 23.0795C78.5032 20.1506 73.3262 20.1555 69.7104 23.0912Z" fill="#AFA8FF"/>
<path d="M105.162 31.7797C110.607 31.7797 115.021 36.1938 115.021 41.6389L115.021 117.741C115.021 118.519 114.39 119.149 113.613 119.149L38.3873 119.149C37.6095 119.149 36.9789 118.519 36.9789 117.741L36.9789 41.6389C36.9789 36.1938 41.393 31.7797 46.8382 31.7797L105.162 31.7797Z" fill="#F9F9FF"/>
<rect x="47.6082" y="65.69" width="44.4953" height="6.42546" rx="3.21273" fill="#BCB6FF"/>
<rect x="47.608" y="43.8336" width="44.0601" height="6.42546" rx="3.21273" fill="#BCB6FF"/>
<rect x="47.6082" y="54.7618" width="33.4123" height="6.42546" rx="3.21273" fill="#BCB6FF"/>
<path d="M65.4274 87.0386L29.5634 58.0962L29.8124 116.265L65.4274 87.0386Z" fill="#8277FF"/>
<path d="M86.7559 87.5484L123.087 58.5143L122.583 113.838L86.7559 87.5484Z" fill="#8277FF"/>
<path d="M14.7674 117.389L68.0568 80.0641C72.9079 76.6663 79.3663 76.6663 84.2174 80.0641L148.481 125.076C149.608 125.865 149.049 127.638 147.673 127.638L17.9995 127.638C12.492 127.638 10.2564 120.549 14.7674 117.389Z" fill="#4A3AFF"/>
</g>
<defs>
<filter id="filter0_d_2208_267" x="0.905666" y="4.1757" width="150.188" height="156.026" filterUnits="userSpaceOnUse" color-interpolation-filters="sRGB">
<feFlood flood-opacity="0" result="BackgroundImageFix"/>
<feColorMatrix in="SourceAlpha" type="matrix" values="0 0 0 0 0 0 0 0 0 0 0 0 0 0 0 0 0 0 127 0" result="hardAlpha"/>
<feOffset dy="11.9736"/>
<feGaussianBlur stdDeviation="14.5394"/>
<feColorMatrix type="matrix" values="0 0 0 0 0.290196 0 0 0 0 0.227451 0 0 0 0 1 0 0 0 0.15 0"/>
<feBlend mode="normal" in2="BackgroundImageFix" result="effect1_dropShadow_2208_267"/>
<feBlend mode="normal" in="SourceGraphic" in2="effect1_dropShadow_2208_267" result="shape"/>
</filter>
</defs>
</svg>
